<?xml version="1.0" encoding="utf-8"?>
<!DOCTYPE svg PUBLIC "-//W3C//DTD SVG 20010904//EN" "http://www.w3.org/TR/2001/REC-SVG-20010904/DTD/svg10.dtd">
<svg version="1.0" xmlns="http://www.w3.org/2000/svg" width="956px" height="980px" viewBox="0 0 956 980" preserveAspectRatio="xMidYMid meet">
 <g fill="#5dbaff">
  <path d="M438.5 978.9 c-102.1 -9.3 -194.3 -48.8 -270.9 -116 -14 -12.3 -39.7 -38.4 -50.7 -51.4 -91.2 -108.3 -131.4 -249.3 -111.8 -392 14.5 -106 63.7 -205.2 139.4 -280.9 77.8 -77.7 176.3 -124.9 286 -136.8 18.7 -2 81.1 -1.7 99.7 0.5 108 12.9 204.6 59.7 281.2 136.3 108.1 108.1 159.9 261.1 140.5 414.9 -12 95.2 -51 184.3 -112.8 258 -10.9 13 -40.7 43.1 -54.1 54.5 -73.1 62.5 -157.9 99.8 -254 111.6 -15.8 1.9 -76.4 2.8 -92.5 1.3z m66.3 -20.9 c48.8 -3.5 93.7 -13.7 139.2 -31.7 13.8 -5.4 45.8 -21.1 59 -28.9 9.4 -5.6 39 -25 40 -26.3 0.3 -0.4 2.1 -1.8 4 -3.1 1.9 -1.3 3.7 -2.7 4 -3 0.3 -0.3 2.8 -2.3 5.5 -4.5 2.8 -2.1 5.2 -4.2 5.5 -4.5 0.3 -0.3 2.7 -2.3 5.5 -4.5 6.9 -5.5 13.9 -12.1 26.9 -25.3 16.2 -16.4 18.3 -18.6 27.6 -30.2 4.7 -5.8 8.7 -10.7 9 -11 0.3 -0.3 1.7 -2.1 3 -4 1.3 -1.9 2.7 -3.7 3 -4 1.4 -1 21 -31 21 -32 0 -0.5 0.4 -1 0.9 -1 0.5 0 1.1 -0.8 1.4 -1.7 0.4 -1 2 -4 3.7 -6.8 1.7 -2.7 3.3 -5.7 3.7 -6.5 0.4 -0.8 0.9 -1.7 1.3 -2 1.4 -1.1 18.4 -36.9 23.2 -48.7 28 -70.3 40.9 -144.6 36.9 -212.8 -6.8 -115.7 -52.2 -220.5 -130.5 -301.2 -74.3 -76.7 -166.2 -122 -273.6 -135 -20.5 -2.5 -73.5 -2.5 -94 0 -54.6 6.6 -98.6 19.4 -146 42.4 -106.2 51.4 -187.6 141.9 -229.8 255.3 -13 35.1 -20.7 68.1 -26.1 112 -5.2 42.2 -6.2 68.1 -4.1 98.8 4.4 61 19.2 116.2 45.6 169.7 11.1 22.3 17 32.6 30.6 53 25.7 38.4 55.8 70.7 95.8 102.9 35.8 28.8 84.4 55 132.7 71.6 53.7 18.5 118.2 27 175.1 23z"/>
  <path d="M214 564.5 l0 -194.5 65.5 0 65.5 0 0 194.5 0 194.5 -65.5 0 -65.5 0 0 -194.5z"/>
  <path d="M394 564.5 l0 -194.5 65.5 0 65.5 0 0 36.1 0 36.1 2.7 -3.4 c9.7 -12.1 30 -30.7 43.4 -39.6 20.7 -13.9 41.3 -22.1 68.4 -27.3 6.6 -1.3 34.6 -1.3 41 -0.1 18.8 3.7 39.2 11.1 49.4 18.1 1.4 1 5.3 3.6 8.6 5.7 3.2 2.1 10 8 15 12.9 11.4 11.2 17.9 19.9 23.7 31.5 1.3 2.5 2.6 4.7 2.9 5 0.3 0.3 1.2 2.3 1.9 4.5 0.7 2.2 1.6 4.5 2 5 0.5 0.6 0.8 1.2 0.9 1.5 0 0.3 0.2 1.2 0.5 2 0.3 0.8 1.7 6.3 3.1 12.1 l2.5 10.7 0 139.1 0 139.1 -65 0 -65 0 0 -122.9 0 -122.9 -4.2 -8.3 c-5 -9.7 -14.8 -20.2 -22.3 -23.9 -4.4 -2.2 -6.3 -2.5 -15.5 -2.5 -9.4 0.1 -11.3 0.4 -18 3.2 -10.4 4.3 -16.2 7.7 -25.5 14.7 -14.3 10.7 -28.4 24.4 -42.5 41.2 l-8 9.5 0 106 0 105.9 -65.5 0 -65.5 0 0 -194.5z"/>
  <path d="M268 319.4 c-20.4 -4 -39.1 -17.7 -47.8 -35.3 -2.3 -4.6 -4.2 -9.4 -4.2 -10.7 0 -1.2 -0.4 -2.6 -1 -2.9 -1.2 -0.8 -1.4 -26.2 -0.1 -26.9 0.5 -0.3 1.2 -2.2 1.5 -4.2 2 -10.1 12.8 -25 24.6 -33.6 4.1 -3 16.3 -8.8 18.4 -8.8 0.8 0 1.8 -0.4 2.1 -1 0.8 -1.3 32.5 -1.4 32.5 -0.1 0 0.5 1.5 1.2 3.3 1.5 3.5 0.7 13.1 5.3 18.1 8.9 7.9 5.5 13.2 11.6 20.4 23.8 7.8 13 7.6 40.3 -0.4 54.7 -11.8 21.4 -31.6 33.9 -54.9 34.7 -5.5 0.2 -11.1 0.1 -12.5 -0.1z"/>
 </g>
 <g fill="#59abe8">
  <path d="M458 978.5 c0 -0.9 0.9 -1.5 2.5 -1.5 1.6 0 2.5 0.6 2.5 1.5 0 0.9 -0.9 1.5 -2.5 1.5 -1.6 0 -2.5 -0.6 -2.5 -1.5z"/>
  <path d="M491 978.5 c0 -0.9 0.9 -1.5 2.5 -1.5 1.6 0 2.5 0.6 2.5 1.5 0 0.9 -0.9 1.5 -2.5 1.5 -1.6 0 -2.5 -0.6 -2.5 -1.5z"/>
  <path d="M439 978.1 c0 -1.2 3.7 -2.4 5 -1.6 2 1.2 1 2.5 -2 2.5 -1.6 0 -3 -0.4 -3 -0.9z"/>
  <path d="M509 978.1 c0 -1.6 1.9 -2.3 4 -1.6 3 1 2.4 2.5 -1 2.5 -1.6 0 -3 -0.4 -3 -0.9z"/>
  <path d="M428 977.1 c0 -1.1 2.6 -2.2 3.4 -1.4 1.2 1.2 0.5 2.3 -1.4 2.3 -1.1 0 -2 -0.4 -2 -0.9z"/>
  <path d="M522 977.2 c0 -1.4 1.1 -2.1 2.6 -1.5 2.1 0.8 1.7 2.3 -0.6 2.3 -1.1 0 -2 -0.4 -2 -0.8z"/>
  <path d="M420 976 c0 -0.5 0.7 -1 1.5 -1 0.8 0 1.5 0.5 1.5 1 0 0.6 -0.7 1 -1.5 1 -0.8 0 -1.5 -0.4 -1.5 -1z"/>
  <path d="M531 976 c0 -0.5 0.7 -1 1.5 -1 0.8 0 1.5 0.5 1.5 1 0 0.6 -0.7 1 -1.5 1 -0.8 0 -1.5 -0.4 -1.5 -1z"/>
  <path d="M405 974 c0 -0.5 0.7 -1 1.5 -1 0.8 0 1.5 0.5 1.5 1 0 0.6 -0.7 1 -1.5 1 -0.8 0 -1.5 -0.4 -1.5 -1z"/>
  <path d="M546 974 c0 -0.5 0.7 -1 1.5 -1 0.8 0 1.5 0.5 1.5 1 0 0.6 -0.7 1 -1.5 1 -0.8 0 -1.5 -0.4 -1.5 -1z"/>
  <path d="M559 972 c0 -0.5 0.9 -1 2 -1 1.1 0 2 0.5 2 1 0 0.6 -0.9 1 -2 1 -1.1 0 -2 -0.4 -2 -1z"/>
  <path d="M951 530 c0 -0.5 0.7 -1 1.5 -1 0.8 0 1.5 0.5 1.5 1 0 0.6 -0.7 1 -1.5 1 -0.8 0 -1.5 -0.4 -1.5 -1z"/>
  <path d="M952 515 c0 -0.5 0.7 -1 1.5 -1 0.8 0 1.5 0.5 1.5 1 0 0.6 -0.7 1 -1.5 1 -0.8 0 -1.5 -0.4 -1.5 -1z"/>
  <path d="M930.3 490 c0 -4.7 0.2 -6.6 0.4 -4.2 0.2 2.3 0.2 6.1 0 8.5 -0.2 2.3 -0.4 0.4 -0.4 -4.3z"/>
  <path d="M952 463 c0 -0.5 0.7 -1 1.5 -1 0.8 0 1.5 0.5 1.5 1 0 0.6 -0.7 1 -1.5 1 -0.8 0 -1.5 -0.4 -1.5 -1z"/>
  <path d="M365 40 c0 -0.5 0.7 -1 1.5 -1 0.8 0 1.5 0.5 1.5 1 0 0.6 -0.7 1 -1.5 1 -0.8 0 -1.5 -0.4 -1.5 -1z"/>
  <path d="M369 39 c0 -0.5 0.7 -1 1.5 -1 0.8 0 1.5 0.5 1.5 1 0 0.6 -0.7 1 -1.5 1 -0.8 0 -1.5 -0.4 -1.5 -1z"/>
  <path d="M414 30 c0 -0.5 0.7 -1 1.5 -1 0.8 0 1.5 0.5 1.5 1 0 0.6 -0.7 1 -1.5 1 -0.8 0 -1.5 -0.4 -1.5 -1z"/>
  <path d="M537 30 c0 -0.5 0.7 -1 1.5 -1 0.8 0 1.5 0.5 1.5 1 0 0.6 -0.7 1 -1.5 1 -0.8 0 -1.5 -0.4 -1.5 -1z"/>
  <path d="M422 29 c0 -0.5 0.7 -1 1.5 -1 0.8 0 1.5 0.5 1.5 1 0 0.6 -0.7 1 -1.5 1 -0.8 0 -1.5 -0.4 -1.5 -1z"/>
  <path d="M529 29 c0 -0.5 0.7 -1 1.5 -1 0.8 0 1.5 0.5 1.5 1 0 0.6 -0.7 1 -1.5 1 -0.8 0 -1.5 -0.4 -1.5 -1z"/>
  <path d="M430 28.2 c0 -1.4 1.1 -2.1 2.6 -1.5 2.1 0.8 1.7 2.3 -0.6 2.3 -1.1 0 -2 -0.4 -2 -0.8z"/>
  <path d="M520 28.1 c0 -1.1 2.6 -2.2 3.4 -1.4 1.2 1.2 0.5 2.3 -1.4 2.3 -1.1 0 -2 -0.4 -2 -0.9z"/>
  <path d="M441.3 26.8 c0.2 -0.7 1.2 -1.3 2.2 -1.3 1 0 2 0.6 2.3 1.3 0.2 0.7 -0.6 1.2 -2.3 1.2 -1.7 0 -2.5 -0.5 -2.2 -1.2z"/>
  <path d="M508.3 26.8 c0.2 -0.7 1.2 -1.3 2.2 -1.3 1 0 2 0.6 2.3 1.3 0.2 0.7 -0.6 1.2 -2.3 1.2 -1.7 0 -2.5 -0.5 -2.2 -1.2z"/>
  <path d="M457 26.1 c0 -1.6 3.3 -2.2 8.7 -1.5 7.6 0.9 6.5 2.4 -1.7 2.4 -3.8 0 -7 -0.4 -7 -0.9z"/>
  <path d="M483 26.1 c0 -1.1 10.1 -2.4 12.3 -1.5 3.6 1.4 1.4 2.4 -5.3 2.4 -3.8 0 -7 -0.4 -7 -0.9z"/>
 </g>
</svg>