<?xml version="1.0" encoding="utf-8"?>
<!DOCTYPE svg PUBLIC "-//W3C//DTD SVG 20010904//EN" "http://www.w3.org/TR/2001/REC-SVG-20010904/DTD/svg10.dtd">
<svg version="1.0" xmlns="http://www.w3.org/2000/svg" width="956px" height="980px" viewBox="0 0 956 980" preserveAspectRatio="xMidYMid meet">
 <g fill="#5dbaff">
  <path d="M438.5 978.9 c-102.1 -9.3 -194.3 -48.8 -270.9 -116 -14 -12.3 -39.7 -38.4 -50.7 -51.4 -91.2 -108.3 -131.4 -249.3 -111.8 -392 14.5 -106 63.7 -205.2 139.4 -280.9 77.8 -77.7 176.3 -124.9 286 -136.8 18.7 -2 81.1 -1.7 99.7 0.5 108 12.9 204.6 59.7 281.2 136.3 108.1 108.1 159.9 261.1 140.5 414.9 -12 95.2 -51 184.3 -112.8 258 -10.9 13 -40.7 43.1 -54.1 54.5 -73.1 62.5 -157.9 99.8 -254 111.6 -15.8 1.9 -76.4 2.8 -92.5 1.3z m-87.4 -50.1 c5.4 -1.8 8.9 -4.9 11.5 -10 l2.4 -4.7 0 -42.2 0 -42.2 -3.7 0.7 c-25 4.3 -49.9 5.2 -65.9 2.3 -41 -7.4 -68.6 -29.5 -83.5 -66.9 -10.5 -26.5 -27.1 -50.8 -41.9 -61.3 -21.1 -15.1 -25.4 -19.5 -24.8 -25.6 0.4 -4.2 3.7 -6.6 11.3 -8 14.7 -2.7 35.2 3.5 51.1 15.4 7.5 5.7 18.7 17.4 23.5 24.7 2 3 6.2 9.5 9.4 14.4 14 21.4 31.8 34.8 54 40.7 17.3 4.5 41.9 2.2 63.2 -6.1 6.4 -2.4 8.4 -3.6 8.7 -5.3 4.7 -24.4 12.6 -42.9 23.9 -55.4 l3.5 -3.8 -15.6 -2.4 c-95.4 -14.3 -150.8 -55.5 -175.6 -130.4 -15 -45.3 -17.8 -111.1 -6.5 -150.1 6.8 -23.5 18.4 -46 33.5 -64.6 l5.5 -6.8 -2.6 -8.8 c-9 -31.1 -7.9 -66.2 3.2 -101.7 4.2 -13.6 4.4 -13.7 14.7 -13.7 25.6 0 65 15.7 103.6 41.2 12 8 7.8 7.8 33.1 1.9 60 -13.8 130.1 -13.1 190.2 1.9 6.5 1.7 12.4 3 13.1 3 0.7 0 6 -3.1 11.8 -6.9 29.8 -19.6 57.9 -32.7 83.3 -38.7 9.4 -2.3 29.2 -2.5 30.5 -0.4 1.8 2.7 7.9 23.3 9.9 33.5 5.5 27.5 4.4 58.2 -3 82.1 l-2 6.5 5.4 6.7 c19.7 24.3 31.9 51.2 37.9 83.9 1.8 10.1 2.2 15.6 2.2 37.3 0 14.6 -0.5 30.4 -1.3 37 -8 70.9 -34.5 119.9 -81.8 150.7 -25.6 16.7 -64.1 30 -103.8 35.8 -6 0.8 -12.5 1.8 -14.3 2.1 l-3.3 0.5 3.3 3.7 c12.2 13.5 20.7 33.8 24.2 57.5 1.3 8.7 1.6 22.7 1.6 83.9 l0 73.4 2.6 5.3 c3.9 7.7 8.6 10.5 18.4 10.9 7.2 0.4 8.5 0.1 21.4 -4.7 44.7 -16.8 86.6 -41 125.6 -72.5 15.1 -12.2 43.7 -40 56.8 -55.1 39.9 -46.2 70.3 -99.8 89.7 -158 40.2 -120.5 30 -252.9 -28.1 -365.5 -44.7 -86.5 -115.3 -156.8 -200.5 -199.6 -48.6 -24.3 -95.6 -38.3 -151.9 -45.1 -20.5 -2.5 -73.5 -2.5 -94 0 -54.6 6.6 -98.6 19.4 -146 42.4 -90.3 43.7 -163.6 116.5 -209.2 207.8 -74.4 148.8 -64.1 328.6 26.8 467.8 16.8 25.6 34 47 55.9 69.6 46.9 48.2 99.3 82.7 163.5 107.7 14.5 5.6 21.9 6.7 29.1 4.2z"/>
 </g>
 <g fill="#59abe8">
  <path d="M458 978.5 c0 -0.9 0.9 -1.5 2.5 -1.5 1.6 0 2.5 0.6 2.5 1.5 0 0.9 -0.9 1.5 -2.5 1.5 -1.6 0 -2.5 -0.6 -2.5 -1.5z"/>
  <path d="M491 978.5 c0 -0.9 0.9 -1.5 2.5 -1.5 1.6 0 2.5 0.6 2.5 1.5 0 0.9 -0.9 1.5 -2.5 1.5 -1.6 0 -2.5 -0.6 -2.5 -1.5z"/>
  <path d="M439 978.1 c0 -1.2 3.7 -2.4 5 -1.6 2 1.2 1 2.5 -2 2.5 -1.6 0 -3 -0.4 -3 -0.9z"/>
  <path d="M509 978.1 c0 -1.6 1.9 -2.3 4 -1.6 3 1 2.4 2.5 -1 2.5 -1.6 0 -3 -0.4 -3 -0.9z"/>
  <path d="M428 977.1 c0 -1.1 2.6 -2.2 3.4 -1.4 1.2 1.2 0.5 2.3 -1.4 2.3 -1.1 0 -2 -0.4 -2 -0.9z"/>
  <path d="M522 977.2 c0 -1.4 1.1 -2.1 2.6 -1.5 2.1 0.8 1.7 2.3 -0.6 2.3 -1.1 0 -2 -0.4 -2 -0.8z"/>
  <path d="M420 976 c0 -0.5 0.7 -1 1.5 -1 0.8 0 1.5 0.5 1.5 1 0 0.6 -0.7 1 -1.5 1 -0.8 0 -1.5 -0.4 -1.5 -1z"/>
  <path d="M531 976 c0 -0.5 0.7 -1 1.5 -1 0.8 0 1.5 0.5 1.5 1 0 0.6 -0.7 1 -1.5 1 -0.8 0 -1.5 -0.4 -1.5 -1z"/>
  <path d="M405 974 c0 -0.5 0.7 -1 1.5 -1 0.8 0 1.5 0.5 1.5 1 0 0.6 -0.7 1 -1.5 1 -0.8 0 -1.5 -0.4 -1.5 -1z"/>
  <path d="M546 974 c0 -0.5 0.7 -1 1.5 -1 0.8 0 1.5 0.5 1.5 1 0 0.6 -0.7 1 -1.5 1 -0.8 0 -1.5 -0.4 -1.5 -1z"/>
  <path d="M559 972 c0 -0.5 0.9 -1 2 -1 1.1 0 2 0.5 2 1 0 0.6 -0.9 1 -2 1 -1.1 0 -2 -0.4 -2 -1z"/>
  <path d="M304 833.1 c0 -1.2 2.9 -2.3 4.1 -1.5 1.8 1 0.9 2.4 -1.6 2.4 -1.4 0 -2.5 -0.4 -2.5 -0.9z"/>
  <path d="M328 833.1 c0 -1.3 2.7 -2.1 4.5 -1.5 2.5 1 1.7 2.4 -1.5 2.4 -1.6 0 -3 -0.4 -3 -0.9z"/>
  <path d="M296 832 c0 -0.5 0.7 -1 1.5 -1 0.8 0 1.5 0.5 1.5 1 0 0.6 -0.7 1 -1.5 1 -0.8 0 -1.5 -0.4 -1.5 -1z"/>
  <path d="M588 797.5 c0 -21.1 0.2 -24.5 1.5 -24.5 1.3 0 1.5 3.4 1.5 24.5 0 21.1 -0.2 24.5 -1.5 24.5 -1.3 0 -1.5 -3.4 -1.5 -24.5z"/>
  <path d="M390 694 c0 -0.5 0.7 -1 1.5 -1 0.8 0 1.5 0.5 1.5 1 0 0.6 -0.7 1 -1.5 1 -0.8 0 -1.5 -0.4 -1.5 -1z"/>
  <path d="M565 693 c0 -0.5 0.7 -1 1.5 -1 0.8 0 1.5 0.5 1.5 1 0 0.6 -0.7 1 -1.5 1 -0.8 0 -1.5 -0.4 -1.5 -1z"/>
  <path d="M951 530 c0 -0.5 0.7 -1 1.5 -1 0.8 0 1.5 0.5 1.5 1 0 0.6 -0.7 1 -1.5 1 -0.8 0 -1.5 -0.4 -1.5 -1z"/>
  <path d="M24 517.5 c0 -0.8 0.7 -1.5 1.5 -1.5 0.8 0 1.5 0.7 1.5 1.5 0 0.8 -0.7 1.5 -1.5 1.5 -0.8 0 -1.5 -0.7 -1.5 -1.5z"/>
  <path d="M952 515 c0 -0.5 0.7 -1 1.5 -1 0.8 0 1.5 0.5 1.5 1 0 0.6 -0.7 1 -1.5 1 -0.8 0 -1.5 -0.4 -1.5 -1z"/>
  <path d="M930.3 490 c0 -4.7 0.2 -6.6 0.4 -4.2 0.2 2.3 0.2 6.1 0 8.5 -0.2 2.3 -0.4 0.4 -0.4 -4.3z"/>
  <path d="M763 490 c0 -0.5 0.7 -1 1.5 -1 0.8 0 1.5 0.5 1.5 1 0 0.6 -0.7 1 -1.5 1 -0.8 0 -1.5 -0.4 -1.5 -1z"/>
  <path d="M952 463 c0 -0.5 0.7 -1 1.5 -1 0.8 0 1.5 0.5 1.5 1 0 0.6 -0.7 1 -1.5 1 -0.8 0 -1.5 -0.4 -1.5 -1z"/>
  <path d="M24 460 c0 -1.1 0.7 -2 1.5 -2 0.8 0 1.5 0.9 1.5 2 0 1.1 -0.7 2 -1.5 2 -0.8 0 -1.5 -0.9 -1.5 -2z"/>
  <path d="M763 447 c0 -0.5 0.7 -1 1.5 -1 0.8 0 1.5 0.5 1.5 1 0 0.6 -0.7 1 -1.5 1 -0.8 0 -1.5 -0.4 -1.5 -1z"/>
  <path d="M726 298 c0 -0.5 0.7 -1 1.5 -1 0.8 0 1.5 0.5 1.5 1 0 0.6 -0.7 1 -1.5 1 -0.8 0 -1.5 -0.4 -1.5 -1z"/>
  <path d="M726 277 c0 -0.5 0.7 -1 1.5 -1 0.8 0 1.5 0.5 1.5 1 0 0.6 -0.7 1 -1.5 1 -0.8 0 -1.5 -0.4 -1.5 -1z"/>
  <path d="M365 40 c0 -0.5 0.7 -1 1.5 -1 0.8 0 1.5 0.5 1.5 1 0 0.6 -0.7 1 -1.5 1 -0.8 0 -1.5 -0.4 -1.5 -1z"/>
  <path d="M369 39 c0 -0.5 0.7 -1 1.5 -1 0.8 0 1.5 0.5 1.5 1 0 0.6 -0.7 1 -1.5 1 -0.8 0 -1.5 -0.4 -1.5 -1z"/>
  <path d="M414 30 c0 -0.5 0.7 -1 1.5 -1 0.8 0 1.5 0.5 1.5 1 0 0.6 -0.7 1 -1.5 1 -0.8 0 -1.5 -0.4 -1.5 -1z"/>
  <path d="M537 30 c0 -0.5 0.7 -1 1.5 -1 0.8 0 1.5 0.5 1.5 1 0 0.6 -0.7 1 -1.5 1 -0.8 0 -1.5 -0.4 -1.5 -1z"/>
  <path d="M422 29 c0 -0.5 0.7 -1 1.5 -1 0.8 0 1.5 0.5 1.5 1 0 0.6 -0.7 1 -1.5 1 -0.8 0 -1.5 -0.4 -1.5 -1z"/>
  <path d="M529 29 c0 -0.5 0.7 -1 1.5 -1 0.8 0 1.5 0.5 1.5 1 0 0.6 -0.7 1 -1.5 1 -0.8 0 -1.5 -0.4 -1.5 -1z"/>
  <path d="M430 28.2 c0 -1.4 1.1 -2.1 2.6 -1.5 2.1 0.8 1.7 2.3 -0.6 2.3 -1.1 0 -2 -0.4 -2 -0.8z"/>
  <path d="M520 28.1 c0 -1.1 2.6 -2.2 3.4 -1.4 1.2 1.2 0.5 2.3 -1.4 2.3 -1.1 0 -2 -0.4 -2 -0.9z"/>
  <path d="M441.3 26.8 c0.2 -0.7 1.2 -1.3 2.2 -1.3 1 0 2 0.6 2.3 1.3 0.2 0.7 -0.6 1.2 -2.3 1.2 -1.7 0 -2.5 -0.5 -2.2 -1.2z"/>
  <path d="M508.3 26.8 c0.2 -0.7 1.2 -1.3 2.2 -1.3 1 0 2 0.6 2.3 1.3 0.2 0.7 -0.6 1.2 -2.3 1.2 -1.7 0 -2.5 -0.5 -2.2 -1.2z"/>
  <path d="M457 26.1 c0 -1.6 3.3 -2.2 8.7 -1.5 7.6 0.9 6.5 2.4 -1.7 2.4 -3.8 0 -7 -0.4 -7 -0.9z"/>
  <path d="M483 26.1 c0 -1.1 10.1 -2.4 12.3 -1.5 3.6 1.4 1.4 2.4 -5.3 2.4 -3.8 0 -7 -0.4 -7 -0.9z"/>
 </g>
</svg>